<svg width="53" height="27" viewBox="0 0 53 27" fill="none" xmlns="http://www.w3.org/2000/svg">
<path d="M4.70182 12.9598C5.74296 12.9598 6.67301 12.6185 7.40703 12.0254L7.67131 12.657H10.0592V3.72167H7.75771L7.44116 4.41286C6.70132 3.80298 5.75748 3.45158 4.70182 3.45158C1.95957 3.45158 0 5.42132 0 8.1897C0 10.9668 1.9603 12.9605 4.70182 12.9605V12.9598ZM5.11421 10.2342C3.95763 10.2342 3.10744 9.36298 3.10744 8.19624C3.10744 7.03603 3.95037 6.16551 5.11421 6.16551C6.27151 6.16551 7.1217 7.03675 7.1217 8.19624C7.1217 9.36298 6.27151 10.2342 5.11421 10.2342V10.2342ZM16.3112 12.9598C18.9597 12.9598 20.724 11.3313 20.724 8.83079V3.73038H17.6354V8.69648C17.6354 9.63016 17.1367 10.195 16.3112 10.195C15.4864 10.195 14.9774 9.6396 14.9774 8.69648V3.73038H11.8889V8.83079C11.8889 11.3313 13.6626 12.9598 16.3112 12.9598ZM26.7378 12.9692C27.7825 12.9692 28.7126 12.6149 29.4423 12.0036L29.7334 12.6672H32.019V0.50387H28.966V4.05782C28.296 3.64651 27.5239 3.43167 26.7378 3.43779C23.9861 3.43779 22.0265 5.42132 22.0265 8.19841C22.0265 10.9762 23.9868 12.9692 26.7385 12.9692H26.7378ZM27.1516 10.2437C25.9943 10.2437 25.1441 9.36516 25.1441 8.19914C25.1441 7.03167 25.9936 6.15389 27.1509 6.15389C28.3082 6.15389 29.1584 7.0324 29.1584 8.19914C29.1584 9.36588 28.3082 10.2437 27.1509 10.2437H27.1516ZM37.0206 2.61228V0H33.9785V2.61228H37.0206V2.61228ZM37.0439 12.6664V3.73038H33.9568V12.6664H37.0453H37.0439ZM43.4911 12.9598C46.4054 12.9598 48.5189 10.9595 48.5189 8.19841C48.5189 5.42858 46.4054 3.43779 43.4918 3.43779C40.5681 3.43779 38.464 5.42858 38.464 8.19841C38.464 10.9595 40.5681 12.9598 43.4918 12.9598H43.4911ZM50.5772 6.00941C50.9134 6.00941 51.1965 5.89615 51.4281 5.67108C51.659 5.44601 51.7752 5.16285 51.7752 4.81944C51.7752 4.48328 51.659 4.20085 51.4281 3.97288C51.317 3.86121 51.1843 3.77327 51.0382 3.71436C50.892 3.65546 50.7355 3.62682 50.5779 3.63019C50.2418 3.63019 49.9565 3.74417 49.7219 3.97288C49.6077 4.08179 49.5175 4.21333 49.457 4.3591C49.3965 4.50487 49.367 4.66165 49.3705 4.81944C49.3705 5.16213 49.4874 5.44601 49.7219 5.67108C49.9565 5.89615 50.2418 6.00941 50.5779 6.00941H50.5772ZM43.4911 10.195C42.3657 10.195 41.5576 9.3804 41.5576 8.19841C41.5576 7.01715 42.3657 6.20326 43.4918 6.20326C44.6172 6.20326 45.4253 7.02441 45.4253 8.19914C45.4253 9.3804 44.6179 10.195 43.4918 10.195H43.4911ZM14.6848 26.0662V22.5478C15.3453 22.9417 16.1012 23.1469 16.8702 23.141C19.6124 23.141 21.572 21.1553 21.572 18.3709C21.572 15.5866 19.6117 13.6096 16.8709 13.6096C15.8051 13.6096 14.8562 13.9769 14.1192 14.6122L13.7323 13.9029H11.6318V26.0662H14.6848V26.0662ZM16.4578 20.4154C15.3005 20.4154 14.4503 19.5442 14.4503 18.3709C14.4503 17.1969 15.3005 16.3257 16.4578 16.3257C17.6144 16.3257 18.4646 17.1969 18.4646 18.3709C18.4646 19.5449 17.6079 20.4154 16.4578 20.4154ZM26.0778 22.839V18.0667C26.0778 16.9196 26.6601 16.2589 27.5952 16.2589C28.4011 16.2589 28.7641 16.7845 28.7641 17.8155V22.839H31.852V17.4576C31.852 15.1415 30.5291 13.6386 28.4708 13.6386C27.5992 13.6423 26.7549 13.943 26.0771 14.491V10.6757H22.9892V22.839H26.0771H26.0778ZM36.7636 12.7841V10.1718H33.7223V12.7841H36.7636ZM36.7876 22.839V13.9022H33.699V22.839H36.7876ZM41.8183 22.839V10.6757H38.7297V22.839H41.8197H41.8183ZM48.1087 23.1323C50.3587 23.1323 52.1723 21.8581 52.8032 19.8186H49.7299C49.433 20.3414 48.8296 20.6565 48.1087 20.6565C47.1336 20.6565 46.4802 20.1265 46.2791 19.1013H52.9368C52.9768 18.8254 53 18.5553 53 18.2867C53 15.665 50.999 13.6096 48.1087 13.6096C45.2946 13.6096 43.2384 15.6243 43.2384 18.3637C43.2384 21.0936 45.3113 23.1323 48.1087 23.1323V23.1323ZM49.9579 17.3966H46.3328C46.5826 16.5094 47.2084 16.0215 48.1087 16.0215C49.0409 16.0215 49.6864 16.5036 49.9579 17.3966Z" fill="#ADADAD"/>
</svg>
