<svg width="83" height="15" viewBox="0 0 83 15" fill="none" xmlns="http://www.w3.org/2000/svg">
<path d="M16.3414 14.5212C16.9499 14.5212 17.4857 14.3883 17.9482 14.1218C18.402 13.8632 18.7944 13.5092 19.0983 13.0843V14.2736H21.418V0H19.0983V5.94715C18.7972 5.51862 18.4043 5.16267 17.9482 4.90525C17.4857 4.64242 16.9499 4.51028 16.3414 4.51028C15.6509 4.51028 15.004 4.64097 14.4028 4.9009C13.8002 5.16083 13.2695 5.52095 12.8099 5.98055C12.3519 6.43839 11.9857 6.97958 11.7309 7.57497C11.4689 8.18821 11.3362 8.84888 11.341 9.51573C11.341 10.2077 11.471 10.8546 11.7309 11.4572C11.9909 12.0598 12.3503 12.5913 12.8099 13.0509C13.2669 13.5093 13.8073 13.876 14.4021 14.1313C15.0047 14.3912 15.6509 14.5212 16.3414 14.5212V14.5212ZM16.3705 12.2849C15.9022 12.2888 15.4423 12.1602 15.044 11.9139C14.6344 11.663 14.2969 11.3101 14.0644 10.8898C13.8319 10.4695 13.7123 9.99604 13.7174 9.51573C13.7174 9.00168 13.838 8.53555 14.079 8.11734C14.3106 7.70812 14.6405 7.36302 15.0389 7.1132C15.4375 6.86267 15.8997 6.73211 16.3705 6.7371C16.8584 6.7371 17.294 6.86053 17.6774 7.10812C18.0607 7.3557 18.3599 7.69042 18.5755 8.11226C18.7911 8.5341 18.8986 9.00168 18.8986 9.51573C18.8986 10.024 18.7911 10.4886 18.5755 10.9098C18.3724 11.3179 18.0641 11.6646 17.6825 11.9139C17.302 12.1608 16.8642 12.2849 16.3705 12.2849V12.2849ZM28.2539 14.5212C28.8304 14.5212 29.3328 14.3898 29.7605 14.1262C30.1833 13.868 30.5398 13.5144 30.8016 13.0937L30.896 14.2736H33.2259V4.75786H30.9062L31.0107 5.97619C30.6599 5.54286 30.229 5.18101 29.7416 4.91034C29.2442 4.6308 28.6786 4.4914 28.0448 4.4914C27.3666 4.4914 26.7328 4.61846 26.1432 4.87185C25.5608 5.12101 25.0316 5.47963 24.5844 5.92827C24.1342 6.37843 23.7857 6.90192 23.5388 7.49874C23.2896 8.1053 23.1635 8.7554 23.1678 9.41117C23.1628 10.0807 23.2913 10.7445 23.5459 11.3637C23.8005 11.9829 24.176 12.5452 24.6504 13.0175C25.1175 13.4854 25.6695 13.86 26.2768 14.1211C26.8911 14.3883 27.5503 14.5212 28.2539 14.5212V14.5212ZM28.3199 12.2849C27.8565 12.2863 27.4013 12.1613 27.0036 11.9233C26.5961 11.6837 26.2495 11.3533 25.9907 10.9577C25.7256 10.5573 25.5626 10.0982 25.5159 9.62028C25.4716 9.08735 25.5573 8.6038 25.7722 8.16961C25.9784 7.74577 26.2955 7.38571 26.6899 7.12772C27.0895 6.86638 27.558 6.73036 28.0353 6.7371C28.4951 6.73092 28.9471 6.85638 29.3379 7.09868C29.7241 7.33973 30.0407 7.6621 30.2883 8.06434C30.5352 8.4673 30.6811 8.916 30.7254 9.41117C30.7639 9.93757 30.6862 10.4182 30.493 10.8531C30.3118 11.2728 30.0172 11.6336 29.6421 11.895C29.2675 12.155 28.8275 12.2849 28.3207 12.2849H28.3199ZM38.7592 14.2743V7.07907H40.6034V4.75786H38.7592V1.77013H36.4395V4.75786H35.0324V7.0798H36.4395V14.2736H38.7592V14.2743ZM46.9441 14.5212C47.5213 14.5212 48.023 14.3898 48.4514 14.1262C48.874 13.8679 49.2303 13.5143 49.4918 13.0937L49.587 14.2736H51.9162V4.75786H49.5971L49.7024 5.97619C49.3513 5.54279 48.9202 5.18094 48.4325 4.91034C47.9352 4.6308 47.3696 4.4914 46.7357 4.4914C46.0576 4.4914 45.4237 4.61846 44.8342 4.87185C44.2517 5.12101 43.7226 5.47963 43.2753 5.92827C42.8252 6.37843 42.4767 6.90192 42.2298 7.49874C41.9808 8.10535 41.8549 8.75545 41.8595 9.41117C41.8545 10.0807 41.983 10.7445 42.2376 11.3637C42.4921 11.9829 42.8676 12.5452 43.3421 13.0175C43.8089 13.4854 44.3607 13.8599 44.9678 14.1211C45.5827 14.3883 46.2413 14.5212 46.9448 14.5212H46.9441ZM47.0109 12.2849C46.5472 12.2865 46.0918 12.1615 45.6938 11.9233C45.2866 11.6837 44.9402 11.3532 44.6817 10.9577C44.4163 10.5574 44.253 10.0982 44.2061 9.62028C44.1626 9.08735 44.2475 8.6038 44.4632 8.16961C44.6691 7.74586 44.986 7.38581 45.3802 7.12772C45.7797 6.86638 46.2482 6.73036 46.7256 6.7371C47.1853 6.73092 47.6373 6.85638 48.0281 7.09868C48.4144 7.33973 48.7317 7.6621 48.9792 8.06434C49.2261 8.4673 49.3713 8.916 49.4163 9.41117C49.4541 9.93757 49.3764 10.4182 49.1833 10.8531C49.0021 11.2728 48.7074 11.6336 48.3323 11.895C47.9584 12.155 47.5177 12.2849 47.0109 12.2849V12.2849ZM59.2559 14.5212C59.9529 14.5212 60.6042 14.3905 61.209 14.1313C62.4154 13.6175 63.3751 12.6554 63.886 11.4478C64.1472 10.8308 64.2797 10.1669 64.2751 9.49685C64.2751 8.57693 64.0501 7.73761 63.5999 6.9796C63.1591 6.23081 62.5343 5.60702 61.7848 5.16736C61.0238 4.7172 60.1809 4.49213 59.2559 4.49213C58.6605 4.49213 58.1327 4.62645 57.6731 4.89581C57.2183 5.16103 56.8247 5.51929 56.5179 5.94715V0H54.1982V14.2743H56.5179V13.0654C56.8245 13.4932 57.2178 13.8515 57.6724 14.1168C58.1327 14.3861 58.6598 14.5212 59.2552 14.5212H59.2559ZM59.2269 12.2755C58.7455 12.2755 58.3149 12.152 57.9345 11.9045C57.5525 11.6552 57.244 11.3086 57.0407 10.9003C56.8221 10.4651 56.7113 9.9838 56.7176 9.49685C56.7176 8.99587 56.825 8.5341 57.0407 8.11226C57.2445 7.70319 57.5525 7.35508 57.9337 7.10303C58.3178 6.85142 58.7685 6.72067 59.2276 6.72766C59.7155 6.72766 60.162 6.85109 60.5679 7.09868C60.973 7.34626 61.2969 7.68098 61.5372 8.10282C61.7782 8.52393 61.8988 8.98933 61.8988 9.49685C61.8988 10.0109 61.7782 10.477 61.5372 10.896C61.3045 11.3059 60.9728 11.6509 60.5722 11.8994C60.169 12.1502 59.7025 12.2807 59.2276 12.2755H59.2269ZM67.1561 3.33987C67.4923 3.33987 67.7762 3.22733 68.0078 3.00225C68.2387 2.77718 68.3549 2.49329 68.3549 2.15059C68.3549 1.81442 68.2387 1.53198 68.0078 1.304C67.8966 1.19225 67.7638 1.10425 67.6175 1.04534C67.4712 0.986429 67.3145 0.957839 67.1569 0.961302C66.8207 0.961302 66.5354 1.07529 66.3009 1.304C66.1866 1.41292 66.0964 1.54446 66.0359 1.69024C65.9754 1.83601 65.9459 1.9928 65.9494 2.15059C65.9494 2.49329 66.0663 2.77718 66.3009 3.00225C66.5354 3.22733 66.8207 3.33987 67.1569 3.33987H67.1561ZM80.9513 6.97017C81.2874 6.97017 81.5713 6.85763 81.8029 6.63255C82.0338 6.40747 82.15 6.12358 82.15 5.78088C82.15 5.44472 82.0338 5.16228 81.8029 4.9343C81.6917 4.82254 81.5589 4.73454 81.4126 4.67563C81.2664 4.61672 81.1097 4.58813 80.952 4.5916C80.6158 4.5916 80.3305 4.70559 80.096 4.9343C79.9818 5.04321 79.8915 5.17476 79.831 5.32053C79.7705 5.4663 79.7411 5.62309 79.7446 5.78088C79.7446 6.12358 79.8615 6.40747 80.096 6.63255C80.3305 6.85763 80.6158 6.97017 80.952 6.97017H80.9513ZM4.79127 14.0304C6.12359 14.0304 7.24898 13.5831 8.16744 12.6901C9.08518 11.797 9.54405 10.6702 9.54405 9.31098C9.54405 7.97648 9.08518 6.8569 8.16672 5.95078C7.24898 5.04466 6.12359 4.5916 4.79054 4.5916C3.45822 4.5916 2.32702 5.04466 1.39621 5.95078C0.465404 6.8569 0 7.97648 0 9.31098C0 10.6702 0.464678 11.7963 1.39549 12.6901C2.32629 13.5831 3.4575 14.0304 4.79054 14.0304H4.79127ZM68.307 14.2736V4.75786H65.9872V14.2743H68.307V14.2736ZM78.7615 14.2736V11.9517H73.9891L78.7615 7.0798V4.75786H70.642V7.0798H75.4238L70.642 11.9517V14.2736H78.7608H78.7615Z" fill="#ADADAD"/>
</svg>
