<svg width="64" height="15" viewBox="0 0 64 15" fill="none" xmlns="http://www.w3.org/2000/svg">
<path fill-rule="evenodd" clip-rule="evenodd" d="M3.54428 7.08856C4.48428 7.08856 5.38578 7.46198 6.05046 8.12666C6.71514 8.79134 7.08855 9.69284 7.08855 10.6328C7.08855 11.5728 6.71514 12.4743 6.05046 13.139C5.38578 13.8037 4.48428 14.1771 3.54428 14.1771C2.60428 14.1771 1.70278 13.8037 1.03809 13.139C0.373414 12.4743 0 11.5728 0 10.6328C0 9.69284 0.373414 8.79134 1.03809 8.12666C1.70278 7.46198 2.60428 7.08856 3.54428 7.08856ZM10.6328 0C11.5728 0 12.4743 0.373414 13.139 1.0381C13.8037 1.70278 14.1771 2.60428 14.1771 3.54428C14.1771 4.48428 13.8037 5.38579 13.139 6.05047C12.4743 6.71515 11.5728 7.08856 10.6328 7.08856C9.69283 7.08856 8.79133 6.71515 8.12665 6.05047C7.46197 5.38579 7.08855 4.48428 7.08855 3.54428C7.08855 2.60428 7.46197 1.70278 8.12665 1.0381C8.79133 0.373414 9.69283 0 10.6328 0V0ZM22.3396 13.0004V7.06305C22.4998 6.85535 22.694 6.6994 22.9237 6.5952C23.1533 6.49171 23.4121 6.43925 23.6999 6.43925C24.116 6.43925 24.4498 6.58457 24.7008 6.87449C24.951 7.1637 25.0765 7.54436 25.0765 8.01433V13.0004H27.6695V7.65352C27.6692 7.46712 27.6586 7.28087 27.6376 7.09565C27.8084 6.88796 28.0111 6.72705 28.2458 6.6115C28.4804 6.49667 28.742 6.43996 29.0305 6.43996C29.4466 6.43996 29.7797 6.58457 30.0307 6.87449C30.2816 7.1637 30.4064 7.54436 30.4064 8.01433V13.0004H33.0001V7.65352C33.0001 6.63631 32.6931 5.79986 32.0793 5.14417C31.4661 4.48777 30.6786 4.15957 29.7188 4.15957C29.1637 4.15957 28.6512 4.26377 28.182 4.47147C27.7174 4.67573 27.3025 4.97798 26.9656 5.35754C26.6778 4.98564 26.3081 4.68511 25.8853 4.47926C25.439 4.26313 24.9485 4.15391 24.4527 4.16028C24.0578 4.16028 23.6814 4.21982 23.3242 4.34033C22.9662 4.46083 22.6387 4.64088 22.3396 4.88119V4.32402H19.7466V13.0004H22.3396ZM38.7623 13.1642C39.4662 13.1642 40.0985 13.0607 40.6585 12.8523C41.2185 12.6453 41.7658 12.3114 42.2995 11.8528L40.5869 10.294C40.3842 10.5017 40.1389 10.6626 39.8504 10.7782C39.5442 10.8963 39.2182 10.9548 38.8899 10.9504C38.3994 10.9504 37.9727 10.8214 37.6097 10.5648C37.2539 10.3168 36.976 9.97258 36.8087 9.5724H42.8439V8.916C42.8493 8.27071 42.7409 7.62953 42.5235 7.02193C42.3102 6.43713 42.0139 5.93667 41.6353 5.52128C41.2557 5.10498 40.7956 4.77002 40.2828 4.53668C39.7451 4.29295 39.1606 4.1698 38.5702 4.17587C37.9514 4.17587 37.3723 4.29071 36.8335 4.52038C36.3079 4.74093 35.8317 5.06437 35.4328 5.47166C35.0318 5.88583 34.7139 6.37312 34.4964 6.9071C34.2656 7.466 34.1485 8.06532 34.1519 8.67002C34.1519 9.29382 34.2724 9.88146 34.512 10.4337C34.7419 10.9705 35.0736 11.4577 35.4888 11.8684C35.9092 12.2795 36.407 12.6031 36.9533 12.8204C37.5282 13.0516 38.1427 13.1684 38.7623 13.1642ZM40.2984 7.71874H36.7612C36.8888 7.28137 37.1086 6.94254 37.4176 6.70224C37.7267 6.46123 38.0953 6.34072 38.522 6.34072C38.9381 6.34072 39.3039 6.4669 39.6186 6.71854C39.9334 6.97018 40.1602 7.30335 40.2991 7.71874H40.2984ZM48.2858 13.1642C48.9904 13.1642 49.622 13.0607 50.1827 12.8523C50.7427 12.6453 51.2899 12.3114 51.823 11.8528L50.1104 10.294C49.9077 10.5017 49.6624 10.6626 49.3739 10.7782C49.0679 10.8962 48.7421 10.9547 48.4141 10.9504C47.9229 10.9504 47.4961 10.8214 47.1332 10.5648C46.7776 10.3167 46.5 9.97249 46.3329 9.5724H52.3674V8.916C52.3728 8.27071 52.2644 7.62953 52.047 7.02193C51.8343 6.43713 51.538 5.93667 51.1588 5.52128C50.7792 5.10498 50.3191 4.77002 49.8063 4.53668C49.2686 4.29295 48.6841 4.1698 48.0937 4.17587C47.4749 4.17587 46.8957 4.29071 46.357 4.52038C45.8314 4.74093 45.3551 5.06437 44.9563 5.47166C44.5555 5.88589 44.2379 6.37318 44.0206 6.9071C43.7898 7.466 43.6727 8.06532 43.6761 8.67002C43.6761 9.29382 43.7966 9.88146 44.0362 10.4337C44.2659 10.9704 44.5974 11.4577 45.0123 11.8684C45.4327 12.2795 45.9305 12.6031 46.4768 12.8204C47.0517 13.0516 47.6662 13.1684 48.2858 13.1642ZM49.8226 7.71874H46.2854C46.413 7.28137 46.6321 6.94254 46.9411 6.70224C47.2509 6.46123 47.6188 6.34072 48.0455 6.34072C48.4616 6.34072 48.8274 6.4669 49.1421 6.71854C49.4568 6.97018 49.6837 7.30335 49.8226 7.71874ZM57.8575 13.1153C58.1028 13.1153 58.4068 13.0905 58.7698 13.0415C59.0736 13.0051 59.3737 12.942 59.6665 12.853V10.7037C59.4531 10.7689 59.2553 10.8157 59.0739 10.8427C58.8831 10.8707 58.6904 10.8845 58.4976 10.8838C58.0815 10.8838 57.7909 10.8044 57.6257 10.6463C57.4598 10.4875 57.3776 10.2167 57.3776 9.83397V6.53778H59.7466V4.32402H57.3776V1.51908L54.7846 2.09325V4.32402H53.072V6.53778H54.7846V10.3599C54.7846 11.2673 55.0433 11.9534 55.5608 12.4185C56.0783 12.8828 56.8438 13.1153 57.8575 13.1153ZM62.1404 3.74064C62.4679 3.74064 62.745 3.63005 62.9712 3.41031C63.1966 3.19056 63.31 2.91411 63.31 2.57882C63.31 2.25062 63.1966 1.97487 62.9712 1.75229C62.8626 1.64318 62.7329 1.55727 62.5901 1.49976C62.4473 1.44224 62.2943 1.41433 62.1404 1.41771C61.8122 1.41771 61.5336 1.529 61.3046 1.75229C61.1931 1.85863 61.105 1.98706 61.0459 2.12938C60.9869 2.27169 60.9581 2.42477 60.9616 2.57882C60.9616 2.9134 61.0757 3.19056 61.3046 3.41031C61.5336 3.63005 61.8122 3.74064 62.1404 3.74064Z" fill="#ADADAD"/>
</svg>
