<svg width="60" height="18" viewBox="0 0 60 18" fill="none" xmlns="http://www.w3.org/2000/svg">
<path d="M25.3815 12.3346V8.46145C25.3815 8.0945 25.4829 7.7959 25.6866 7.56494C25.8895 7.33398 26.1586 7.21813 26.4946 7.21813C26.8457 7.21813 27.1205 7.33614 27.3206 7.5707C27.5199 7.80526 27.6192 8.13407 27.6192 8.55643V12.3339H29.2294V8.46145C29.2294 8.21682 29.2762 8.00096 29.369 7.81389C29.4618 7.6261 29.5906 7.48004 29.7568 7.37499C29.9223 7.27066 30.118 7.21813 30.3425 7.21813C30.6944 7.21813 30.9692 7.33614 31.1685 7.5707C31.3678 7.80526 31.4678 8.13407 31.4678 8.55643V12.3339H33.0781V8.13048C33.0781 7.43183 32.891 6.86629 32.5183 6.43387C32.1456 6.00216 31.5937 5.78631 30.8634 5.78631C30.4375 5.78631 30.0497 5.87984 29.7007 6.06692C29.351 6.25399 29.0726 6.51589 28.8661 6.85118L28.9107 6.78211L28.8841 6.73175C28.7573 6.51678 28.5893 6.32899 28.3898 6.17916L28.2854 6.10505C27.9638 5.89208 27.5515 5.78559 27.0507 5.78559C26.6126 5.78559 26.2168 5.882 25.8636 6.07555C25.6283 6.20506 25.4247 6.36408 25.2534 6.55475L25.18 6.64109V5.93956H23.759V12.3339H25.3815V12.3346ZM36.3936 12.5123C36.9462 12.5123 37.4031 12.4166 37.7643 12.2245C38.0449 12.0763 38.3111 11.8547 38.5622 11.5618L38.5723 11.5489V12.3346H39.9811V8.42691C39.9811 8.13479 39.9696 7.87073 39.9458 7.63329C39.9181 7.38408 39.8416 7.14277 39.7206 6.92314C39.5111 6.5112 39.1571 6.19098 38.7263 6.02375C38.2881 5.84963 37.7866 5.76256 37.2225 5.76256C36.4526 5.76256 35.8446 5.92805 35.3992 6.25975C34.962 6.5785 34.6415 7.03199 34.4869 7.55055L35.9439 8.01248C36.0461 7.72035 36.226 7.51745 36.4821 7.40233C36.739 7.28793 36.9858 7.23109 37.2225 7.23109C37.6484 7.23109 37.9528 7.31959 38.1341 7.49731C38.2615 7.62178 38.3442 7.79518 38.3823 8.01823L38.3931 8.1017L38.1363 8.13983L37.8729 8.1794L37.6189 8.21682C37.2045 8.27798 36.8339 8.34201 36.5058 8.40893C36.1785 8.47656 35.8964 8.55283 35.6597 8.63989C35.3158 8.76652 35.0424 8.92338 34.8395 9.11045C34.6358 9.29824 34.4891 9.5141 34.3984 9.75873C34.3048 10.0189 34.2585 10.2938 34.2617 10.5703C34.2617 10.9251 34.3437 11.2503 34.5078 11.5438C34.6718 11.8381 34.9121 12.0727 35.2302 12.249C35.5482 12.4245 35.9353 12.5123 36.3936 12.5123ZM36.7368 11.2452C36.5512 11.2452 36.3914 11.2172 36.2576 11.1625C36.1328 11.1144 36.0247 11.0309 35.9468 10.9222C35.8718 10.8115 35.8333 10.6802 35.8367 10.5466C35.8367 10.4401 35.8597 10.343 35.9051 10.2566C35.9504 10.1696 36.0216 10.0897 36.118 10.0163C36.2152 9.94364 36.3425 9.87529 36.5001 9.81197C36.6382 9.76161 36.798 9.7134 36.98 9.67023C37.1613 9.62706 37.4002 9.57813 37.6959 9.52489C37.8808 9.49179 38.1017 9.45294 38.3579 9.40977L38.3795 9.40689V9.41192C38.3769 9.49182 38.3736 9.57169 38.3694 9.65152L38.3622 9.78535C38.3478 10.0163 38.3003 10.2192 38.2168 10.3926C38.1737 10.4833 38.0916 10.5955 37.9715 10.7301C37.8327 10.878 37.6681 10.9994 37.4858 11.0884C37.2829 11.1927 37.0325 11.2452 36.7375 11.2452H36.7368ZM43.1548 12.3346V9.25579L45.3688 12.3346H47.4647L45.0018 9.13707L47.3115 5.94028H45.322L43.1548 9.01907V3.80909H41.5208L41.5086 12.3346H43.1548ZM53.9245 9.58749C53.9914 8.81401 53.9123 8.14127 53.687 7.56854C53.4626 6.99581 53.115 6.55187 52.6452 6.236C52.1761 5.92086 51.6055 5.76256 50.9342 5.76256C50.3032 5.76256 49.7441 5.90575 49.2592 6.19211C48.7729 6.47871 48.3768 6.89601 48.1159 7.39657C47.8396 7.9139 47.7014 8.52189 47.7014 9.22053C47.7014 9.85946 47.8432 10.4272 48.1252 10.9222C48.4014 11.4114 48.8072 11.815 49.298 12.0885C49.7967 12.3713 50.3737 12.5123 51.0292 12.5123C51.6451 12.5123 52.2121 12.3504 52.7315 12.0266C53.2476 11.7065 53.6472 11.229 53.8713 10.6646L52.2603 10.2034C52.1423 10.4639 51.9703 10.6632 51.7458 10.8006C51.5206 10.9394 51.2501 11.0085 50.9342 11.0085C50.4334 11.0085 50.0535 10.8452 49.7945 10.5193C49.6161 10.294 49.4988 10.0041 49.4434 9.64864L49.4347 9.58749H53.9245ZM52.2948 8.39166H49.4779L49.4894 8.33698C49.5448 8.10457 49.6269 7.90527 49.7377 7.73978L49.7952 7.66063C50.0535 7.32678 50.4572 7.15985 51.0054 7.15985C51.4753 7.15985 51.8134 7.30304 52.0207 7.5894C52.148 7.76496 52.2365 8.01032 52.2854 8.32474L52.2948 8.39166ZM56.8781 12.3346V9.06584C56.8781 8.82121 56.9119 8.60104 56.9788 8.40533C57.0419 8.21732 57.1428 8.0442 57.2753 7.89663C57.4055 7.75273 57.5652 7.63689 57.7552 7.54983C57.9444 7.45917 58.1567 7.40521 58.3912 7.38722C58.6265 7.36923 58.8323 7.38794 59.01 7.44334V5.93956C58.8176 5.91606 58.6234 5.91124 58.4301 5.92517C58.2358 5.93884 58.0487 5.97194 57.8674 6.02591C57.6904 6.07697 57.521 6.1515 57.3638 6.24751C57.1623 6.36551 56.9932 6.51589 56.8551 6.69721C56.7997 6.7699 56.7488 6.84583 56.7025 6.92457L56.6773 6.9699V5.94028H55.2563V12.3346H56.8788H56.8781ZM7.89448 0C11.8273 0 15.0889 2.87589 15.6897 6.63965C16.7591 7.86451 17.3234 9.44983 17.2683 11.0749C17.2133 12.7 16.5431 14.2435 15.3933 15.3933C14.2435 16.543 12.6999 17.2131 11.0748 17.268C9.44971 17.3229 7.86442 16.7585 6.63965 15.6889C2.87661 15.0881 0 11.8273 0 7.89376C0 3.53424 3.53424 0 7.89304 0H7.89448ZM10.8438 4.4401C9.53868 4.44225 8.26532 4.84248 7.19369 5.58736C6.12206 6.33223 5.30317 7.38629 4.84635 8.6088C4.38953 9.83131 4.31653 11.1641 4.63709 12.4292C4.95764 13.6943 5.65651 14.8315 6.64037 15.6889C7.26812 15.7889 7.90557 15.8136 8.53916 15.7623C7.42378 15.2357 6.52105 14.3449 5.97968 13.2366C5.43831 12.1284 5.2906 10.8687 5.56089 9.66526C5.83117 8.4618 6.50332 7.3863 7.46661 6.61595C8.4299 5.8456 9.62687 5.42635 10.8603 5.42727C11.8879 5.42893 12.8939 5.72198 13.7615 6.27242C14.6292 6.82286 15.323 7.6081 15.7623 8.537C15.61 10.4021 14.8 12.1525 13.4769 13.4759C12.1538 14.7993 10.4035 15.6096 8.53844 15.7623C9.54962 16.2395 10.6835 16.3927 11.785 16.201C12.8866 16.0093 13.902 15.482 14.6926 14.6914C15.4831 13.9007 16.0102 12.8851 16.2016 11.7835C16.3931 10.6819 16.2397 9.54808 15.7623 8.537C15.8142 7.90394 15.7901 7.26695 15.6904 6.63965C15.0877 5.94664 14.3429 5.39151 13.5066 5.01197C12.6703 4.63243 11.7621 4.43739 10.8438 4.4401Z" fill="#ADADAD"/>
</svg>
